<svg id="visual" viewBox="0 0 960 300" width="960" height="300" xmlns="http://www.w3.org/2000/svg" xmlns:xlink="http://www.w3.org/1999/xlink" version="1.1"><rect x="0" y="0" width="960" height="300" fill="#fafafa"></rect><path d="M0 101L12.3 97.3C24.7 93.7 49.3 86.3 74 80.2C98.7 74 123.3 69 148 70C172.7 71 197.3 78 221.8 86C246.3 94 270.7 103 295.2 95.7C319.7 88.3 344.3 64.7 369 58C393.7 51.3 418.3 61.7 443 62.5C467.7 63.3 492.3 54.7 517 56.5C541.7 58.3 566.3 70.7 591 76.7C615.7 82.7 640.3 82.3 664.8 73.7C689.3 65 713.7 48 738.2 41.5C762.7 35 787.3 39 812 39.5C836.7 40 861.3 37 886 47.3C910.7 57.7 935.3 81.3 947.7 93.2L960 105L960 301L947.7 301C935.3 301 910.7 301 886 301C861.3 301 836.7 301 812 301C787.3 301 762.7 301 738.2 301C713.7 301 689.3 301 664.8 301C640.3 301 615.7 301 591 301C566.3 301 541.7 301 517 301C492.3 301 467.7 301 443 301C418.3 301 393.7 301 369 301C344.3 301 319.7 301 295.2 301C270.7 301 246.3 301 221.8 301C197.3 301 172.7 301 148 301C123.3 301 98.7 301 74 301C49.3 301 24.7 301 12.3 301L0 301Z" fill="#fafafa"></path><path d="M0 75L12.3 83.3C24.7 91.7 49.3 108.3 74 114.2C98.7 120 123.3 115 148 107.3C172.7 99.7 197.3 89.3 221.8 86.2C246.3 83 270.7 87 295.2 87.8C319.7 88.7 344.3 86.3 369 87.5C393.7 88.7 418.3 93.3 443 92.7C467.7 92 492.3 86 517 91.5C541.7 97 566.3 114 591 114.2C615.7 114.3 640.3 97.7 664.8 96.7C689.3 95.7 713.7 110.3 738.2 114.5C762.7 118.7 787.3 112.3 812 104.3C836.7 96.3 861.3 86.7 886 84C910.7 81.3 935.3 85.7 947.7 87.8L960 90L960 301L947.7 301C935.3 301 910.7 301 886 301C861.3 301 836.7 301 812 301C787.3 301 762.7 301 738.2 301C713.7 301 689.3 301 664.8 301C640.3 301 615.7 301 591 301C566.3 301 541.7 301 517 301C492.3 301 467.7 301 443 301C418.3 301 393.7 301 369 301C344.3 301 319.7 301 295.2 301C270.7 301 246.3 301 221.8 301C197.3 301 172.7 301 148 301C123.3 301 98.7 301 74 301C49.3 301 24.7 301 12.3 301L0 301Z" fill="#fee6e0"></path><path d="M0 110L12.3 117C24.7 124 49.3 138 74 142.8C98.7 147.7 123.3 143.3 148 138C172.7 132.7 197.3 126.3 221.8 121.7C246.3 117 270.7 114 295.2 111.2C319.7 108.3 344.3 105.7 369 105.7C393.7 105.7 418.3 108.3 443 117.5C467.7 126.7 492.3 142.3 517 143.5C541.7 144.7 566.3 131.3 591 131.5C615.7 131.7 640.3 145.3 664.8 146.2C689.3 147 713.7 135 738.2 129C762.7 123 787.3 123 812 124.7C836.7 126.3 861.3 129.7 886 127.3C910.7 125 935.3 117 947.7 113L960 109L960 301L947.7 301C935.3 301 910.7 301 886 301C861.3 301 836.7 301 812 301C787.3 301 762.7 301 738.2 301C713.7 301 689.3 301 664.8 301C640.3 301 615.7 301 591 301C566.3 301 541.7 301 517 301C492.3 301 467.7 301 443 301C418.3 301 393.7 301 369 301C344.3 301 319.7 301 295.2 301C270.7 301 246.3 301 221.8 301C197.3 301 172.7 301 148 301C123.3 301 98.7 301 74 301C49.3 301 24.7 301 12.3 301L0 301Z" fill="#ffd1c7"></path><path d="M0 190L12.3 184.8C24.7 179.7 49.3 169.3 74 162C98.7 154.7 123.3 150.3 148 156.5C172.7 162.7 197.3 179.3 221.8 186.5C246.3 193.7 270.7 191.3 295.2 184.7C319.7 178 344.3 167 369 160.5C393.7 154 418.3 152 443 153.5C467.7 155 492.3 160 517 163.3C541.7 166.7 566.3 168.3 591 167.5C615.7 166.7 640.3 163.3 664.8 161.8C689.3 160.3 713.7 160.7 738.2 159.7C762.7 158.7 787.3 156.3 812 161C836.7 165.7 861.3 177.3 886 180.3C910.7 183.3 935.3 177.7 947.7 174.8L960 172L960 301L947.7 301C935.3 301 910.7 301 886 301C861.3 301 836.7 301 812 301C787.3 301 762.7 301 738.2 301C713.7 301 689.3 301 664.8 301C640.3 301 615.7 301 591 301C566.3 301 541.7 301 517 301C492.3 301 467.7 301 443 301C418.3 301 393.7 301 369 301C344.3 301 319.7 301 295.2 301C270.7 301 246.3 301 221.8 301C197.3 301 172.7 301 148 301C123.3 301 98.7 301 74 301C49.3 301 24.7 301 12.3 301L0 301Z" fill="#ffbdae"></path><path d="M0 216L12.3 216.7C24.7 217.3 49.3 218.7 74 215C98.7 211.3 123.3 202.7 148 197.8C172.7 193 197.3 192 221.8 194.3C246.3 196.7 270.7 202.3 295.2 207.3C319.7 212.3 344.3 216.7 369 210.8C393.7 205 418.3 189 443 188.7C467.7 188.3 492.3 203.7 517 209C541.7 214.3 566.3 209.7 591 204.5C615.7 199.3 640.3 193.7 664.8 196.7C689.3 199.7 713.7 211.3 738.2 215.5C762.7 219.7 787.3 216.3 812 215.2C836.7 214 861.3 215 886 215C910.7 215 935.3 214 947.7 213.5L960 213L960 301L947.7 301C935.3 301 910.7 301 886 301C861.3 301 836.7 301 812 301C787.3 301 762.7 301 738.2 301C713.7 301 689.3 301 664.8 301C640.3 301 615.7 301 591 301C566.3 301 541.7 301 517 301C492.3 301 467.7 301 443 301C418.3 301 393.7 301 369 301C344.3 301 319.7 301 295.2 301C270.7 301 246.3 301 221.8 301C197.3 301 172.7 301 148 301C123.3 301 98.7 301 74 301C49.3 301 24.7 301 12.3 301L0 301Z" fill="#ffa996"></path><path d="M0 239L12.3 236C24.7 233 49.3 227 74 225.7C98.7 224.3 123.3 227.7 148 233.3C172.7 239 197.3 247 221.8 243.2C246.3 239.3 270.7 223.7 295.2 216.8C319.7 210 344.3 212 369 217.8C393.7 223.7 418.3 233.3 443 234.7C467.7 236 492.3 229 517 230.3C541.7 231.7 566.3 241.3 591 241.3C615.7 241.3 640.3 231.7 664.8 226.7C689.3 221.7 713.7 221.3 738.2 225.8C762.7 230.3 787.3 239.7 812 242.5C836.7 245.3 861.3 241.7 886 239.7C910.7 237.7 935.3 237.3 947.7 237.2L960 237L960 301L947.7 301C935.3 301 910.7 301 886 301C861.3 301 836.7 301 812 301C787.3 301 762.7 301 738.2 301C713.7 301 689.3 301 664.8 301C640.3 301 615.7 301 591 301C566.3 301 541.7 301 517 301C492.3 301 467.7 301 443 301C418.3 301 393.7 301 369 301C344.3 301 319.7 301 295.2 301C270.7 301 246.3 301 221.8 301C197.3 301 172.7 301 148 301C123.3 301 98.7 301 74 301C49.3 301 24.7 301 12.3 301L0 301Z" fill="#ff947e"></path><path d="M0 268L12.3 268.2C24.7 268.3 49.3 268.7 74 266.5C98.7 264.3 123.3 259.7 148 255.7C172.7 251.7 197.3 248.3 221.8 250.2C246.3 252 270.7 259 295.2 263.7C319.7 268.3 344.3 270.7 369 268.8C393.7 267 418.3 261 443 256.8C467.7 252.7 492.3 250.3 517 252.2C541.7 254 566.3 260 591 261.3C615.7 262.7 640.3 259.3 664.8 260.7C689.3 262 713.7 268 738.2 268C762.7 268 787.3 262 812 263.3C836.7 264.7 861.3 273.3 886 273C910.7 272.7 935.3 263.3 947.7 258.7L960 254L960 301L947.7 301C935.3 301 910.7 301 886 301C861.3 301 836.7 301 812 301C787.3 301 762.7 301 738.2 301C713.7 301 689.3 301 664.8 301C640.3 301 615.7 301 591 301C566.3 301 541.7 301 517 301C492.3 301 467.7 301 443 301C418.3 301 393.7 301 369 301C344.3 301 319.7 301 295.2 301C270.7 301 246.3 301 221.8 301C197.3 301 172.7 301 148 301C123.3 301 98.7 301 74 301C49.3 301 24.7 301 12.3 301L0 301Z" fill="#ff7e67"></path></svg>