<svg id="visual" viewBox="0 0 960 540" width="960" height="540" xmlns="http://www.w3.org/2000/svg" xmlns:xlink="http://www.w3.org/1999/xlink" version="1.1"><path d="M0 104L87 104L87 66L175 66L175 93L262 93L262 87L349 87L349 104L436 104L436 39L524 39L524 104L611 104L611 82L698 82L698 77L785 77L785 39L873 39L873 66L960 66L960 93L960 0L960 0L873 0L873 0L785 0L785 0L698 0L698 0L611 0L611 0L524 0L524 0L436 0L436 0L349 0L349 0L262 0L262 0L175 0L175 0L87 0L87 0L0 0Z" fill="#07689f"></path><path d="M0 147L87 147L87 141L175 141L175 152L262 152L262 163L349 163L349 233L436 233L436 190L524 190L524 228L611 228L611 141L698 141L698 195L785 195L785 109L873 109L873 158L960 158L960 201L960 91L960 64L873 64L873 37L785 37L785 75L698 75L698 80L611 80L611 102L524 102L524 37L436 37L436 102L349 102L349 85L262 85L262 91L175 91L175 64L87 64L87 102L0 102Z" fill="#3b82b3"></path><path d="M0 206L87 206L87 206L175 206L175 185L262 185L262 222L349 222L349 276L436 276L436 260L524 260L524 293L611 293L611 228L698 228L698 266L785 266L785 168L873 168L873 233L960 233L960 260L960 199L960 156L873 156L873 107L785 107L785 193L698 193L698 139L611 139L611 226L524 226L524 188L436 188L436 231L349 231L349 161L262 161L262 150L175 150L175 139L87 139L87 145L0 145Z" fill="#5e9dc8"></path><path d="M0 401L87 401L87 449L175 449L175 401L262 401L262 357L349 357L349 374L436 374L436 401L524 401L524 455L611 455L611 314L698 314L698 374L785 374L785 433L873 433L873 449L960 449L960 422L960 258L960 231L873 231L873 166L785 166L785 264L698 264L698 226L611 226L611 291L524 291L524 258L436 258L436 274L349 274L349 220L262 220L262 183L175 183L175 204L87 204L87 204L0 204Z" fill="#80b9dd"></path><path d="M0 541L87 541L87 541L175 541L175 541L262 541L262 541L349 541L349 541L436 541L436 541L524 541L524 541L611 541L611 541L698 541L698 541L785 541L785 541L873 541L873 541L960 541L960 541L960 420L960 447L873 447L873 431L785 431L785 372L698 372L698 312L611 312L611 453L524 453L524 399L436 399L436 372L349 372L349 355L262 355L262 399L175 399L175 447L87 447L87 399L0 399Z" fill="#a2d5f2"></path></svg>